<svg width="480pt" height="290pt" viewBox="0 0 480 290" version="1.1" xmlns="http://www.w3.org/2000/svg" xmlns:xlink="http://www.w3.org/1999/xlink">
  <g id="surface2">
    <path style=" stroke:none;fill-rule:evenodd;fill:rgb(84.313725%,9.019608%,18.431373%);fill-opacity:1;" d="M 291.601562 113.800781 C 288.964844 118.765625 285.714844 123.601562 281.851562 128.300781 C 277.984375 133.000000 273.734375 137.500000 269.101562 141.800781 C 264.433594 146.066406 259.617188 150.050781 254.648438 153.750000 C 249.683594 157.417969 244.800781 160.714844 240.000000 163.648438 C 235.500000 160.917969 230.917969 157.851562 226.250000 154.449219 C 221.617188 151.015625 217.082031 147.332031 212.648438 143.398438 C 208.250000 139.433594 204.148438 135.285156 200.351562 130.949219 C 196.550781 126.617188 193.265625 122.148438 190.500000 117.550781 C 187.699219 112.949219 185.601562 108.300781 184.199219 103.601562 L 178.050781 103.601562 C 179.714844 109.933594 182.500000 116.148438 186.398438 122.250000 C 190.300781 128.351562 194.964844 134.214844 200.398438 139.851562 C 205.800781 145.449219 211.632812 150.683594 217.898438 155.550781 C 224.167969 160.417969 230.515625 164.800781 236.949219 168.699219 C 237.882812 169.265625 238.898438 169.550781 240.000000 169.550781 C 241.066406 169.550781 242.082031 169.265625 243.050781 168.699219 C 248.582031 165.332031 254.082031 161.601562 259.550781 157.500000 C 264.984375 153.398438 270.167969 149.000000 275.101562 144.300781 C 280.035156 139.601562 284.484375 134.699219 288.449219 129.601562 C 292.417969 124.464844 295.667969 119.199219 298.199219 113.800781 L 291.601562 113.800781 M 183.050781 98.500000 C 182.683594 96.500000 182.500000 94.484375 182.500000 92.449219 C 182.500000 88.050781 183.183594 83.882812 184.550781 79.949219 C 185.949219 76.015625 187.984375 72.515625 190.648438 69.449219 C 193.316406 66.382812 196.582031 63.964844 200.449219 62.199219 C 204.316406 60.433594 208.734375 59.535156 213.699219 59.500000 C 214.601562 59.500000 215.535156 59.535156 216.500000 59.601562 C 220.265625 59.898438 223.566406 60.851562 226.398438 62.449219 C 229.265625 64.015625 231.714844 65.949219 233.750000 68.250000 C 233.816406 67.683594 233.882812 67.132812 233.949219 66.601562 C 234.250000 64.464844 234.535156 62.632812 234.800781 61.101562 C 232.601562 59.167969 230.015625 57.535156 227.050781 56.199219 C 224.082031 54.832031 220.699219 54.000000 216.898438 53.699219 C 215.832031 53.632812 214.765625 53.601562 213.699219 53.601562 C 208.566406 53.601562 203.800781 54.464844 199.398438 56.199219 C 195.035156 57.964844 191.148438 60.535156 187.750000 63.898438 C 184.148438 67.535156 181.382812 71.800781 179.449219 76.699219 C 177.550781 81.566406 176.601562 86.816406 176.601562 92.449219 C 176.601562 94.484375 176.750000 96.500000 177.050781 98.500000 L 183.050781 98.500000 M 244.601562 61.601562 C 246.832031 59.535156 249.484375 57.785156 252.550781 56.351562 C 255.582031 54.917969 259.101562 54.035156 263.101562 53.699219 C 264.167969 53.632812 265.234375 53.601562 266.300781 53.601562 C 271.433594 53.601562 276.183594 54.464844 280.550781 56.199219 C 284.949219 57.964844 288.851562 60.535156 292.250000 63.898438 C 295.851562 67.535156 298.601562 71.800781 300.500000 76.699219 C 302.433594 81.566406 303.398438 86.816406 303.398438 92.449219 C 303.367188 97.917969 302.351562 103.351562 300.351562 108.750000 L 294.000000 108.750000 C 296.265625 103.316406 297.433594 97.882812 297.500000 92.449219 C 297.500000 88.050781 296.800781 83.882812 295.398438 79.949219 C 294.035156 76.015625 292.015625 72.515625 289.351562 69.449219 C 286.683594 66.382812 283.417969 63.964844 279.550781 62.199219 C 275.683594 60.433594 271.265625 59.535156 266.300781 59.500000 C 265.367188 59.500000 264.433594 59.535156 263.500000 59.601562 C 259.601562 59.933594 256.183594 60.933594 253.250000 62.601562 C 250.316406 64.300781 247.816406 66.367188 245.750000 68.800781 C 245.515625 67.035156 245.265625 65.367188 245.000000 63.800781 C 244.867188 63.000000 244.734375 62.265625 244.601562 61.601562 "/>
    <path style=" stroke:none;fill-rule:evenodd;fill:rgb(6.27451%,27.45098%,52.156863%);fill-opacity:1;" d="M 231.300781 151.250000 C 230.765625 151.250000 230.265625 151.101562 229.800781 150.800781 C 229.332031 150.535156 228.917969 150.082031 228.550781 149.449219 C 228.214844 148.816406 227.882812 147.816406 227.550781 146.449219 C 227.214844 145.117188 226.851562 143.265625 226.449219 140.898438 C 226.050781 138.535156 225.601562 135.484375 225.101562 131.750000 C 224.800781 129.648438 224.515625 127.699219 224.250000 125.898438 C 223.949219 124.066406 223.683594 122.582031 223.449219 121.449219 C 223.050781 119.617188 222.683594 117.882812 222.351562 116.250000 C 221.785156 113.515625 221.214844 110.964844 220.648438 108.601562 C 220.117188 106.199219 219.550781 104.265625 218.949219 102.800781 C 218.316406 101.332031 217.667969 100.566406 217.000000 100.500000 C 216.132812 100.500000 215.316406 100.800781 214.550781 101.398438 C 213.785156 101.964844 212.917969 102.750000 211.949219 103.750000 C 211.250000 104.515625 210.449219 105.285156 209.550781 106.050781 C 208.683594 106.816406 207.683594 107.464844 206.550781 108.000000 C 205.449219 108.500000 204.167969 108.765625 202.699219 108.800781 L 166.648438 108.800781 L 168.750000 103.648438 L 202.699219 103.648438 C 203.734375 103.617188 204.667969 103.300781 205.500000 102.699219 C 206.332031 102.101562 207.250000 101.250000 208.250000 100.148438 C 208.949219 99.417969 209.714844 98.683594 210.550781 97.949219 C 211.382812 97.214844 212.332031 96.617188 213.398438 96.148438 C 214.464844 95.648438 215.667969 95.382812 217.000000 95.351562 C 219.035156 95.351562 220.667969 96.117188 221.898438 97.648438 C 223.101562 99.183594 224.101562 101.417969 224.898438 104.351562 C 225.699219 107.316406 226.535156 110.933594 227.398438 115.199219 C 227.734375 116.832031 228.101562 118.566406 228.500000 120.398438 C 228.765625 121.601562 229.035156 123.132812 229.300781 125.000000 C 229.601562 126.867188 229.898438 128.867188 230.199219 131.000000 C 230.300781 131.898438 230.433594 132.867188 230.601562 133.898438 C 230.734375 134.933594 230.882812 136.000000 231.050781 137.101562 C 231.285156 134.867188 231.515625 132.484375 231.750000 129.949219 C 231.949219 127.449219 232.148438 124.984375 232.351562 122.550781 C 232.550781 120.082031 232.734375 117.800781 232.898438 115.699219 C 233.132812 112.632812 233.351562 109.867188 233.550781 107.398438 C 233.750000 104.898438 233.933594 102.898438 234.101562 101.398438 C 234.332031 99.464844 234.582031 97.167969 234.851562 94.500000 C 235.117188 92.132812 235.398438 89.617188 235.699219 86.949219 C 236.000000 84.316406 236.316406 81.683594 236.648438 79.050781 C 236.984375 76.382812 237.332031 73.851562 237.699219 71.449219 C 238.265625 67.449219 238.800781 64.382812 239.300781 62.250000 C 239.800781 60.082031 240.351562 58.601562 240.949219 57.800781 C 241.582031 57.035156 242.367188 56.667969 243.300781 56.699219 C 244.265625 56.667969 245.050781 57.035156 245.648438 57.800781 C 246.250000 58.566406 246.785156 59.816406 247.250000 61.550781 C 247.714844 63.316406 248.199219 65.683594 248.699219 68.648438 C 249.199219 71.617188 249.683594 74.867188 250.148438 78.398438 C 250.648438 81.933594 251.132812 85.515625 251.601562 89.148438 C 251.933594 91.785156 252.265625 94.300781 252.601562 96.699219 C 252.933594 99.101562 253.234375 101.250000 253.500000 103.148438 C 254.132812 107.214844 254.714844 110.515625 255.250000 113.050781 C 255.816406 115.617188 256.316406 117.582031 256.750000 118.949219 C 257.214844 120.351562 257.632812 121.316406 258.000000 121.851562 C 258.367188 121.148438 258.867188 119.785156 259.500000 117.750000 C 260.132812 115.714844 260.898438 112.734375 261.800781 108.800781 C 261.964844 108.167969 262.117188 107.500000 262.250000 106.800781 C 262.515625 105.464844 262.851562 104.050781 263.250000 102.550781 C 263.648438 101.082031 264.183594 99.683594 264.851562 98.351562 C 265.484375 97.050781 266.332031 96.015625 267.398438 95.250000 C 268.464844 94.484375 269.785156 94.167969 271.351562 94.300781 C 273.117188 94.535156 274.714844 95.199219 276.148438 96.300781 C 277.617188 97.433594 278.964844 98.648438 280.199219 99.949219 C 281.035156 100.816406 281.882812 101.632812 282.750000 102.398438 C 283.617188 103.167969 284.367188 103.582031 285.000000 103.648438 L 313.351562 103.648438 L 311.250000 108.800781 L 285.000000 108.800781 C 283.367188 108.734375 281.851562 108.183594 280.449219 107.148438 C 279.082031 106.117188 277.765625 104.933594 276.500000 103.601562 C 275.566406 102.601562 274.617188 101.683594 273.648438 100.851562 C 272.648438 100.015625 271.734375 99.550781 270.898438 99.449219 C 270.867188 99.417969 270.832031 99.417969 270.800781 99.449219 C 270.199219 99.484375 269.683594 99.984375 269.250000 100.949219 C 268.785156 101.917969 268.398438 103.050781 268.101562 104.351562 C 267.765625 105.648438 267.500000 106.816406 267.300781 107.851562 C 267.132812 108.582031 266.984375 109.285156 266.851562 109.949219 C 265.484375 116.015625 264.183594 120.484375 262.949219 123.351562 C 261.683594 126.183594 260.117188 127.601562 258.250000 127.601562 C 256.515625 127.601562 255.066406 126.714844 253.898438 124.949219 C 252.734375 123.183594 251.734375 120.550781 250.898438 117.050781 C 250.035156 113.550781 249.199219 109.183594 248.398438 103.949219 C 248.101562 102.015625 247.800781 99.851562 247.500000 97.449219 C 247.167969 95.015625 246.832031 92.464844 246.500000 89.800781 C 246.199219 87.535156 245.882812 85.132812 245.550781 82.601562 C 245.183594 80.035156 244.832031 77.500000 244.500000 75.000000 C 244.132812 72.535156 243.765625 70.250000 243.398438 68.148438 C 242.964844 70.816406 242.535156 73.785156 242.101562 77.050781 C 241.699219 80.316406 241.316406 83.550781 240.949219 86.750000 C 240.582031 89.917969 240.265625 92.683594 240.000000 95.050781 C 239.699219 97.750000 239.433594 100.066406 239.199219 102.000000 C 239.035156 103.464844 238.851562 105.417969 238.648438 107.851562 C 238.449219 110.316406 238.250000 113.066406 238.050781 116.101562 C 237.550781 122.566406 237.117188 127.917969 236.750000 132.148438 C 236.351562 136.417969 235.984375 139.785156 235.648438 142.250000 C 235.316406 144.750000 234.984375 146.601562 234.648438 147.800781 C 234.316406 149.000000 233.949219 149.816406 233.550781 150.250000 C 233.148438 150.683594 232.699219 150.964844 232.199219 151.101562 C 231.898438 151.199219 231.601562 151.250000 231.300781 151.250000 "/>
  </g>
  <g id="surface4">
    <text style="fill:rgb(16,70,133)" font-family="Futura Md BT" font-size="50" transform="matrix(1,0,0,1,109.775392,223.55)" ><![CDATA[DiSaMed24]]></text>
  </g>
</svg>